<?xml version="1.0" encoding="UTF-8"?><svg xmlns="http://www.w3.org/2000/svg" xmlns:xlink="http://www.w3.org/1999/xlink" height="304.5" preserveAspectRatio="xMidYMid meet" version="1.0" viewBox="0.0 -11.9 499.5 304.5" width="499.5" zoomAndPan="magnify"><defs><clipPath id="a"><path d="M 64 269 L 499.488281 269 L 499.488281 271 L 64 271 Z M 64 269"/></clipPath><clipPath id="b"><path d="M 328 186 L 445 186 L 445 283.339844 L 328 283.339844 Z M 328 186"/></clipPath></defs><g><g id="change1_1"><path d="M 344.804688 63.460938 L 344.695312 63.375 C 344.140625 62.929688 341.566406 60.761719 339.140625 57.140625 C 336.714844 53.515625 334.4375 48.453125 334.4375 42.1875 C 334.441406 36.851562 336.085938 30.621094 340.757812 23.621094 L 339.925781 23.066406 C 335.160156 30.199219 333.4375 36.640625 333.4375 42.1875 C 333.4375 49.136719 336.132812 54.652344 338.8125 58.425781 C 341.492188 62.195312 344.171875 64.234375 344.195312 64.257812 L 344.804688 63.460938" fill="#211a15"/></g><g id="change2_1"><path d="M 346.753906 222.226562 C 332.460938 208.851562 291.351562 180.246094 272.367188 166.964844 C 266.695312 162.996094 253.757812 154.472656 245.300781 161.109375 C 245.300781 161.109375 239.3125 156.164062 232.804688 162.152344 C 232.804688 162.152344 226.039062 158.246094 221.484375 166.316406 C 221.484375 166.316406 214.550781 163.039062 211.722656 171.78125 C 210.140625 176.671875 209.195312 185.226562 220.183594 190.523438 C 220.183594 190.523438 214.597656 197.941406 218.75 200.28125 C 221.789062 201.996094 226.960938 201.859375 232.414062 197.417969 C 232.414062 197.417969 296.394531 257.386719 326.0625 262.929688 C 354.285156 268.203125 364.347656 238.691406 346.753906 222.226562" fill="#fbcd8a"/></g><g id="change1_2"><path d="M 271.609375 172.324219 C 259.746094 171.8125 250.742188 170.894531 246.601562 170.890625 C 245.035156 170.890625 243.714844 171.316406 242.769531 172.101562 C 241.828125 172.882812 241.292969 174.035156 241.296875 175.339844 C 241.300781 176.828125 241.960938 178.507812 243.347656 180.230469 C 245.609375 183.039062 248.929688 185.03125 253.078125 186.480469 C 257.230469 187.929688 262.222656 188.839844 267.890625 189.457031 L 267.996094 188.464844 C 262.375 187.851562 257.449219 186.949219 253.410156 185.539062 C 249.367188 184.128906 246.230469 182.214844 244.125 179.601562 C 242.835938 178.003906 242.296875 176.523438 242.296875 175.339844 C 242.300781 174.296875 242.691406 173.472656 243.410156 172.867188 C 244.132812 172.265625 245.210938 171.890625 246.601562 171.890625 C 250.628906 171.890625 259.6875 172.808594 271.566406 173.320312 L 271.609375 172.324219" fill="#211a15"/></g><g id="change1_3"><path d="M 251.148438 185.21875 C 251.140625 185.25 249.460938 189.707031 249.457031 194.265625 C 249.457031 196.445312 249.839844 198.664062 251.046875 200.433594 L 251.871094 199.871094 C 250.832031 198.355469 250.453125 196.332031 250.457031 194.265625 C 250.453125 192.109375 250.863281 189.925781 251.273438 188.285156 C 251.476562 187.46875 251.679688 186.785156 251.835938 186.308594 C 251.910156 186.070312 251.972656 185.886719 252.019531 185.757812 C 252.0625 185.632812 252.085938 185.570312 252.085938 185.570312 L 251.148438 185.21875" fill="#211a15"/></g><g id="change1_4"><path d="M 246.835938 182.722656 C 246.832031 182.726562 246.277344 183.328125 245.359375 184.316406 C 242.597656 187.277344 236.554688 193.675781 232.449219 197.390625 L 233.117188 198.132812 C 238.660156 193.113281 247.566406 183.40625 247.570312 183.398438 L 246.835938 182.722656" fill="#211a15"/></g><g id="change1_5"><path d="M 244.933594 160.769531 C 244.929688 160.769531 240.101562 165.972656 234.5 172.234375 C 228.898438 178.496094 222.53125 185.800781 219.425781 190.054688 L 220.234375 190.644531 C 223.285156 186.460938 229.652344 179.148438 235.246094 172.898438 C 238.042969 169.773438 240.648438 166.910156 242.554688 164.828125 C 243.507812 163.789062 244.285156 162.945312 244.824219 162.359375 C 245.363281 161.773438 245.664062 161.449219 245.664062 161.449219 L 244.933594 160.769531" fill="#211a15"/></g><g id="change1_6"><path d="M 232.441406 161.804688 C 232.425781 161.828125 227.109375 167.386719 223.886719 174.070312 C 223.269531 175.355469 222.6875 177.453125 222.683594 179.605469 C 222.683594 181.382812 223.089844 183.222656 224.308594 184.59375 L 225.054688 183.929688 C 224.0625 182.824219 223.683594 181.242188 223.683594 179.605469 C 223.679688 177.640625 224.242188 175.628906 224.789062 174.503906 C 226.351562 171.253906 228.449219 168.246094 230.15625 166.054688 C 231.007812 164.957031 231.765625 164.066406 232.304688 163.449219 C 232.574219 163.140625 232.789062 162.902344 232.941406 162.738281 C 233.089844 162.578125 233.164062 162.496094 233.167969 162.496094 L 232.441406 161.804688" fill="#211a15"/></g><g id="change1_7"><path d="M 221.050781 166.0625 C 221.042969 166.078125 220.144531 167.609375 219.242188 169.851562 C 218.339844 172.09375 217.429688 175.039062 217.425781 177.917969 C 217.425781 178.621094 217.480469 179.320312 217.609375 180.007812 C 218.503906 184.839844 222.007812 188.058594 222.039062 188.097656 L 222.71875 187.363281 L 222.6875 187.335938 C 222.339844 187.003906 219.347656 183.992188 218.589844 179.828125 C 218.476562 179.210938 218.425781 178.570312 218.425781 177.917969 C 218.425781 175.253906 219.292969 172.398438 220.167969 170.222656 C 220.605469 169.136719 221.046875 168.21875 221.371094 167.574219 C 221.535156 167.253906 221.671875 167 221.769531 166.828125 C 221.863281 166.65625 221.914062 166.570312 221.914062 166.570312 L 221.050781 166.0625" fill="#211a15"/></g><g id="change1_8"><path d="M 226.085938 186.410156 L 226.117188 186.910156 L 226.257812 186.90625 C 226.746094 186.902344 227.640625 187.042969 228.332031 187.371094 C 228.683594 187.53125 228.980469 187.738281 229.175781 187.96875 C 229.371094 188.203125 229.476562 188.445312 229.476562 188.769531 C 229.480469 189.242188 229.21875 189.960938 228.371094 190.925781 C 227.957031 191.40625 226.914062 192.179688 225.777344 192.78125 C 224.644531 193.398438 223.378906 193.855469 222.585938 193.847656 C 222.234375 193.847656 222.007812 193.765625 221.886719 193.652344 C 221.765625 193.539062 221.660156 193.359375 221.65625 192.941406 C 221.65625 192.835938 221.660156 192.71875 221.679688 192.589844 C 221.730469 192.191406 221.925781 191.605469 222.226562 190.984375 C 222.679688 190.050781 223.371094 189.015625 224.101562 188.226562 C 224.46875 187.832031 224.84375 187.503906 225.195312 187.273438 C 225.550781 187.042969 225.871094 186.925781 226.117188 186.910156 L 226.085938 186.410156 L 226.054688 185.914062 C 225.398438 185.957031 224.789062 186.296875 224.210938 186.753906 C 223.347656 187.449219 222.535156 188.464844 221.898438 189.507812 C 221.265625 190.554688 220.804688 191.605469 220.6875 192.460938 C 220.664062 192.628906 220.65625 192.789062 220.65625 192.941406 C 220.648438 193.539062 220.835938 194.0625 221.21875 194.398438 C 221.601562 194.734375 222.089844 194.847656 222.585938 194.847656 C 223.707031 194.839844 225.027344 194.3125 226.25 193.664062 C 227.46875 193.003906 228.550781 192.230469 229.125 191.582031 C 230.050781 190.523438 230.472656 189.605469 230.476562 188.769531 C 230.480469 188.199219 230.261719 187.699219 229.9375 187.320312 C 229.449219 186.753906 228.757812 186.417969 228.085938 186.203125 C 227.40625 185.992188 226.742188 185.90625 226.257812 185.90625 L 226.054688 185.914062 L 226.085938 186.410156" fill="#211a15"/></g><g id="change1_9"><path d="M 248.660156 171.648438 C 248.683594 171.707031 249.09375 172.714844 250.386719 173.714844 C 251.683594 174.71875 253.855469 175.695312 257.316406 175.738281 L 257.398438 175.738281 C 258.109375 175.738281 258.742188 175.621094 259.25 175.34375 C 259.503906 175.203125 259.722656 175.015625 259.886719 174.773438 C 260.046875 174.53125 260.132812 174.238281 260.132812 173.933594 C 260.125 173.230469 259.726562 172.523438 258.972656 171.734375 L 258.25 172.429688 C 258.925781 173.121094 259.140625 173.660156 259.132812 173.933594 C 259.132812 174.058594 259.105469 174.140625 259.050781 174.222656 C 258.972656 174.34375 258.800781 174.480469 258.515625 174.578125 C 258.230469 174.679688 257.847656 174.742188 257.398438 174.738281 L 257.328125 174.738281 C 254.046875 174.695312 252.117188 173.785156 251 172.925781 C 250.441406 172.492188 250.085938 172.066406 249.867188 171.757812 C 249.761719 171.601562 249.6875 171.476562 249.644531 171.390625 L 249.597656 171.300781 L 249.589844 171.28125 L 249.546875 171.300781 L 249.589844 171.28125 L 249.546875 171.300781 L 249.589844 171.28125 L 248.660156 171.648438" fill="#211a15"/></g><g id="change1_10"><path d="M 346.753906 222.226562 C 336.296875 212.441406 311.492188 194.507812 291.492188 180.382812 C 290.296875 189.636719 285.484375 205.734375 266.59375 209.023438 C 261.148438 209.972656 253.976562 210.617188 245.59375 209.265625 C 265.921875 227.039062 304.800781 258.957031 326.0625 262.929688 C 354.285156 268.203125 364.347656 238.691406 346.753906 222.226562" fill="#211a15"/></g><g id="change3_1"><path d="M 306.476562 191.058594 C 301.382812 187.390625 296.296875 183.777344 291.492188 180.382812 C 290.296875 189.636719 285.484375 205.734375 266.59375 209.023438 C 261.148438 209.972656 253.976562 210.617188 245.59375 209.265625 C 250.800781 213.816406 257.230469 219.300781 264.261719 225 C 279.890625 223.738281 304.660156 217.539062 306.476562 191.058594" fill="#6e41a4"/></g><g id="change4_1"><path d="M 332.40625 137.65625 C 320.800781 153.5625 311.921875 184.949219 311.921875 184.949219 L 377.402344 228.984375 L 357.820312 114.085938 C 357.820312 114.085938 344.660156 120.867188 332.40625 137.65625" fill="#87a8dd"/></g><g id="change4_2"><path d="M 460.566406 120.710938 C 484.777344 149.183594 491.1875 270.226562 491.1875 270.226562 L 330.675781 270.226562 C 330.675781 270.226562 325.976562 157.246094 346.984375 124.96875 C 361.355469 102.890625 401.800781 98.027344 421.269531 100.109375 C 432.300781 101.289062 449.390625 107.570312 460.566406 120.710938" fill="#87a8dd"/></g><g id="change5_1"><path d="M 478.402344 168.035156 C 482.121094 191.164062 469.8125 204.152344 459.492188 204.816406 C 441.597656 205.96875 401.023438 196.265625 398.035156 178.242188 C 395.699219 164.183594 401.675781 133.675781 401.675781 133.675781 L 361.09375 128.316406 C 340.054688 148.535156 333.367188 172.984375 332.40625 183.457031 C 329.9375 210.386719 326.132812 270.226562 326.132812 270.226562 L 491.1875 270.226562 C 491.1875 270.226562 488.160156 213.039062 478.402344 168.035156" fill="#cd5daf"/></g><g id="change1_11"><path d="M 328.363281 225.8125 L 366.1875 270.226562 L 389.214844 270.226562 Z M 328.363281 225.8125" fill="#211a15"/></g><g id="change1_12"><path d="M 459.9375 204.78125 L 455.339844 270.226562 L 443.578125 270.226562 Z M 459.9375 204.78125" fill="#211a15"/></g><g id="change3_2"><path d="M 370.351562 138.730469 C 403.015625 148.625 425.886719 110.734375 430.097656 101.871094 C 426.917969 100.976562 423.917969 100.390625 421.269531 100.109375 C 405.496094 98.421875 375.964844 101.296875 357.675781 114.1875 C 357.257812 124.53125 359.082031 135.316406 370.351562 138.730469" fill="#6e41a4"/></g><g id="change4_3"><path d="M 434.898438 126.351562 C 420.054688 123.3125 408.351562 130.378906 398.59375 174.871094 C 394.957031 191.457031 389.511719 213.757812 387.539062 225.976562 C 385.003906 241.671875 421.265625 292.648438 441.261719 273.839844 C 449.253906 266.324219 454.910156 237.40625 460.496094 201.1875 C 464.058594 178.09375 467.1875 132.960938 434.898438 126.351562" fill="#87a8dd"/></g><g clip-path="url(#a)" id="change1_43"><path d="M 64.566406 270.726562 L 499.488281 270.726562 L 499.488281 269.726562 L 64.566406 269.726562 Z M 64.566406 270.726562" fill="#211a15"/></g><g id="change2_2"><path d="M 297.074219 185.519531 C 286.148438 188.964844 270.390625 198.429688 261.972656 212.800781 C 255.113281 224.507812 250.824219 245.675781 261.6875 247.1875 C 267.867188 248.046875 269.070312 238.695312 273.015625 226.964844 C 273.015625 226.964844 272.066406 239.761719 286.207031 238.203125 C 286.207031 238.203125 292.300781 244.863281 299.519531 241.875 C 299.519531 241.875 310.628906 251.15625 321.449219 239.414062 C 324.585938 236.007812 328.953125 227.933594 325.398438 222.421875 C 325.398438 222.421875 345.21875 240.863281 351.996094 246.582031 C 365.652344 258.097656 392.582031 279.292969 419.195312 261.695312 C 438.253906 249.089844 395.421875 201.84375 344.722656 186 C 330.0625 181.417969 309.355469 181.648438 297.074219 185.519531" fill="#fbcd8a"/></g><g clip-path="url(#b)" id="change4_5"><path d="M 344.722656 186 C 352.1875 192.46875 354.757812 203.078125 349.800781 212.367188 C 342.550781 225.953125 328.363281 225.8125 328.363281 225.8125 C 328.363281 225.8125 350.78125 246.671875 358.449219 253.140625 C 373.890625 266.164062 409.476562 297.351562 438.679688 276.15625 C 464.4375 257.460938 402.09375 202.273438 344.722656 186" fill="#87a8dd"/></g><g id="change1_13"><path d="M 300.40625 225.863281 C 300.390625 225.898438 297.394531 231.261719 297.386719 236.75 C 297.382812 239.042969 297.921875 241.382812 299.476562 243.316406 L 300.253906 242.6875 C 298.882812 240.980469 298.386719 238.894531 298.386719 236.75 C 298.382812 234.1875 299.105469 231.570312 299.832031 229.609375 C 300.195312 228.628906 300.558594 227.808594 300.832031 227.234375 C 300.96875 226.949219 301.082031 226.726562 301.160156 226.574219 C 301.238281 226.421875 301.277344 226.347656 301.277344 226.347656 L 300.40625 225.863281" fill="#211a15"/></g><g id="change1_14"><path d="M 287.160156 221.894531 C 287.148438 221.929688 284.328125 227.367188 284.320312 232.933594 C 284.320312 235.203125 284.796875 237.515625 286.179688 239.460938 L 286.996094 238.882812 C 285.769531 237.160156 285.320312 235.070312 285.320312 232.933594 C 285.320312 230.320312 286 227.660156 286.6875 225.664062 C 287.027344 224.667969 287.371094 223.835938 287.628906 223.253906 C 287.757812 222.964844 287.863281 222.738281 287.9375 222.582031 C 288.011719 222.429688 288.050781 222.351562 288.050781 222.351562 L 287.160156 221.894531" fill="#211a15"/></g><g id="change1_15"><path d="M 275.78125 217.644531 C 275.753906 217.6875 272.148438 222.671875 272.144531 229.980469 C 272.144531 230.269531 272.148438 230.5625 272.160156 230.859375 L 273.160156 230.820312 C 273.148438 230.535156 273.144531 230.257812 273.144531 229.980469 C 273.144531 226.492188 274.011719 223.546875 274.878906 221.472656 C 275.308594 220.4375 275.742188 219.621094 276.066406 219.066406 C 276.226562 218.785156 276.359375 218.574219 276.453125 218.433594 L 276.558594 218.277344 L 276.59375 218.226562 L 275.78125 217.644531" fill="#211a15"/></g><g id="change1_16"><path d="M 331.152344 212.417969 L 331.109375 212.515625 C 330.652344 213.523438 326.46875 222.191406 315.175781 229.359375 L 315.710938 230.203125 C 327.988281 222.40625 332.046875 212.867188 332.074219 212.808594 L 331.152344 212.417969" fill="#211a15"/></g><g id="change3_3"><path d="M 369.300781 195.121094 C 361.1875 191.433594 352.90625 188.320312 344.722656 186 C 352.1875 192.46875 354.757812 203.078125 349.800781 212.367188 C 342.550781 225.953125 328.363281 225.8125 328.363281 225.8125 C 328.363281 225.8125 335.445312 232.40625 343.011719 239.324219 C 373.101562 234.523438 371.5 207.085938 369.300781 195.121094" fill="#6e41a4"/></g><g id="change1_17"><path d="M 332.90625 183.492188 C 332.90625 183.492188 332.925781 183.257812 332.960938 182.824219 C 333.21875 179.773438 334.457031 166.882812 337.582031 156.804688 L 336.628906 156.511719 C 333.007812 168.191406 331.910156 183.402344 331.910156 183.421875 L 332.90625 183.492188" fill="#211a15"/></g><g id="change1_18"><path d="M 286.332031 256.871094 L 140.371094 256.871094 L 140.371094 270.226562 L 341.910156 270.226562 L 341.910156 256.871094 L 286.332031 256.871094" fill="#211a15"/></g><g id="change2_3"><path d="M 285.832031 270.226562 L 286.832031 270.226562 L 286.832031 256.871094 L 285.832031 256.871094 Z M 285.832031 270.226562" fill="#fbcd8a"/></g><g id="change1_19"><path d="M 18.144531 42.789062 L 202.054688 42.789062 L 228.886719 224.5625 L 44.976562 224.5625 L 18.144531 42.789062" fill="#211a15"/></g><g id="change1_20"><path d="M 0 42.789062 L 183.910156 42.789062 L 210.738281 224.5625 L 26.832031 224.5625 L 0 42.789062" fill="#211a15"/></g><g id="change1_21"><path d="M 138.445312 200.492188 L 101.933594 200.492188 L 107.550781 270.230469 L 144.066406 270.230469 L 138.445312 200.492188" fill="#211a15"/></g><g id="change2_4"><path d="M 183.414062 42.859375 L 210.246094 224.636719 L 211.234375 224.488281 L 184.40625 42.714844" fill="#fbcd8a"/></g><g id="change2_5"><path d="M 130.519531 270.191406 L 124.902344 200.453125 L 123.902344 200.53125 L 129.523438 270.273438" fill="#fbcd8a"/></g><g id="change1_22"><path d="M 160.144531 256.871094 L 82.957031 256.871094 L 82.957031 270.230469 L 181.625 270.230469 L 181.625 256.871094 L 160.144531 256.871094" fill="#211a15"/></g><g id="change2_6"><path d="M 159.648438 270.230469 L 160.648438 270.230469 L 160.648438 256.871094 L 159.648438 256.871094 Z M 159.648438 270.230469" fill="#fbcd8a"/></g><g id="change2_7"><path d="M 181.125 270.230469 L 182.125 270.230469 L 182.125 256.871094 L 181.125 256.871094 Z M 181.125 270.230469" fill="#fbcd8a"/></g><g id="change4_4"><path d="M 328.363281 225.8125 L 329.398438 227.042969 C 329.113281 226.609375 328.777344 226.195312 328.363281 225.8125" fill="#87a8dd"/></g><g id="change2_8"><path d="M 411.6875 67.707031 L 416.8125 99.488281 L 367.820312 119.417969 L 364.199219 82.320312 L 411.6875 67.707031" fill="#fbcd8a"/></g><g id="change1_23"><path d="M 413.980469 87.714844 C 430.378906 78.34375 451.207031 35.035156 405.730469 14.09375 C 363.300781 -5.441406 343.71875 9.738281 337.371094 28.21875 C 332.289062 43.023438 338.886719 59 343.3125 63.859375 C 365.101562 87.777344 397.835938 96.941406 413.980469 87.714844" fill="#211a15"/></g><g id="change2_9"><path d="M 386.445312 11.789062 C 369.132812 7.1875 347.554688 16.089844 344.804688 45.199219 C 344.058594 53.066406 343.109375 68.859375 342.046875 76.691406 C 341.179688 83.074219 340.328125 95.789062 351.6875 100.597656 C 356.371094 102.578125 360.136719 103.664062 371.355469 105.761719 L 416.8125 99.488281 L 412.292969 75.507812 C 412.59375 57.457031 413.074219 18.867188 386.445312 11.789062" fill="#fbcd8a"/></g><g id="change1_24"><path d="M 352.019531 63.085938 L 350.480469 77.679688 L 351.476562 77.78125 L 353.011719 63.191406" fill="#211a15"/></g><g id="change1_25"><path d="M 365.101562 67.011719 C 364.960938 68.617188 363.960938 69.84375 362.867188 69.746094 C 361.773438 69.652344 361 68.273438 361.136719 66.667969 C 361.277344 65.058594 362.277344 63.835938 363.371094 63.929688 C 364.464844 64.023438 365.238281 65.402344 365.101562 67.011719" fill="#211a15"/></g><g id="change1_26"><path d="M 349.910156 64.921875 C 349.769531 66.527344 348.769531 67.753906 347.679688 67.65625 C 346.585938 67.5625 345.808594 66.183594 345.949219 64.574219 C 346.089844 62.96875 347.089844 61.742188 348.183594 61.839844 C 349.277344 61.933594 350.050781 63.3125 349.910156 64.921875" fill="#211a15"/></g><g id="change1_27"><path d="M 366.195312 105.722656 L 377.910156 107.78125 L 378.085938 106.796875 L 366.367188 104.738281" fill="#211a15"/></g><g id="change1_28"><path d="M 366.351562 84.585938 L 366.339844 84.617188 C 366.273438 84.796875 365.886719 85.710938 365.117188 86.550781 C 364.339844 87.394531 363.21875 88.152344 361.570312 88.15625 C 360.769531 88.15625 359.835938 87.976562 358.742188 87.503906 L 358.347656 88.421875 C 359.542969 88.9375 360.617188 89.15625 361.570312 89.15625 C 363.683594 89.160156 365.144531 88.074219 366.027344 87.027344 C 366.917969 85.980469 367.28125 84.953125 367.292969 84.921875 L 366.351562 84.585938" fill="#211a15"/></g><g id="change1_29"><path d="M 400.320312 63.339844 C 392.617188 60.792969 381.316406 53.304688 383.273438 38.753906 C 383.273438 38.753906 360.199219 71.539062 341.820312 48.222656 C 334.277344 38.652344 338.074219 13.949219 368.441406 7.390625 C 398.332031 0.9375 451.703125 34 421.027344 60.730469 C 414.972656 66.003906 405.277344 64.976562 400.320312 63.339844" fill="#211a15"/></g><g id="change2_10"><path d="M 400.320312 63.339844 C 400.320312 63.339844 408.796875 48.238281 418.675781 57.382812 C 421.886719 60.355469 421.5 67.535156 414.992188 74.035156 C 414.21875 74.808594 412.433594 76.382812 412.433594 76.382812 L 400.320312 63.339844" fill="#fbcd8a"/></g><g id="change1_30"><path d="M 405.097656 69.3125 L 415.191406 54.640625 L 414.367188 54.074219 L 404.273438 68.746094" fill="#211a15"/></g><g id="change1_31"><path d="M 408.980469 15.84375 C 408.980469 15.84375 379.261719 -11.894531 348.09375 12.316406 L 432.355469 59.617188 C 432.355469 59.617188 441.609375 24.773438 408.980469 15.84375" fill="#211a15"/></g><g id="change1_32"><path d="M 353.347656 56.191406 C 355.460938 56.800781 357.480469 57.074219 359.40625 57.074219 C 363.671875 57.074219 367.445312 55.722656 370.683594 53.714844 C 380.394531 47.679688 385.425781 35.792969 385.449219 35.757812 L 384.53125 35.363281 C 384.53125 35.363281 384.5 35.441406 384.429688 35.589844 C 383.921875 36.71875 381.464844 41.875 377.222656 46.722656 C 372.980469 51.574219 366.988281 56.078125 359.40625 56.074219 C 357.578125 56.074219 355.648438 55.8125 353.621094 55.230469 L 353.347656 56.191406" fill="#211a15"/></g><g id="change1_33"><path d="M 342.667969 19.96875 C 352.476562 5.578125 363.398438 1.007812 373.496094 0.996094 C 382.769531 0.996094 391.382812 4.898438 397.675781 8.820312 C 400.820312 10.78125 403.382812 12.742188 405.15625 14.210938 C 406.046875 14.945312 406.734375 15.558594 407.203125 15.984375 C 407.4375 16.199219 407.613281 16.363281 407.734375 16.476562 C 407.851562 16.59375 407.910156 16.648438 407.910156 16.648438 L 408.046875 16.785156 L 408.238281 16.792969 C 408.238281 16.792969 408.324219 16.796875 408.503906 16.8125 C 409.839844 16.921875 415.984375 17.636719 421.746094 21.480469 C 427.503906 25.332031 432.914062 32.238281 432.929688 44.988281 C 432.929688 47.828125 432.65625 50.960938 432.054688 54.410156 L 433.039062 54.582031 C 433.648438 51.082031 433.929688 47.894531 433.929688 44.988281 C 433.929688 38.035156 432.335938 32.703125 429.925781 28.640625 C 426.3125 22.546875 420.890625 19.332031 416.398438 17.648438 C 411.902344 15.964844 408.320312 15.796875 408.285156 15.792969 L 408.261719 16.292969 L 408.613281 15.9375 C 408.597656 15.921875 404.589844 11.949219 398.203125 7.972656 C 391.820312 3.996094 383.054688 0 373.496094 -0.00390625 C 363.078125 -0.0117188 351.765625 4.800781 341.84375 19.402344 L 342.667969 19.96875" fill="#211a15"/></g><g id="change2_11"><path d="M 416.8125 99.488281 C 416.8125 99.488281 401.945312 127.554688 382.148438 130.664062 C 374.839844 131.8125 368.621094 127.601562 367.820312 119.417969 C 366.789062 108.851562 416.8125 99.488281 416.8125 99.488281" fill="#fbcd8a"/></g><g id="change1_34"><path d="M 351.761719 198.707031 L 370.066406 205.691406 L 370.421875 204.757812 L 352.117188 197.773438" fill="#211a15"/></g><g id="change1_35"><path d="M 349.855469 212.21875 L 367.371094 222.058594 L 367.863281 221.1875 L 350.34375 211.347656" fill="#211a15"/></g><g id="change1_36"><path d="M 340.046875 222.703125 L 356.527344 234.871094 L 357.121094 234.066406 L 340.636719 221.898438" fill="#211a15"/></g><g id="change1_37"><path d="M 458.8125 218.140625 L 465.164062 179.207031 L 464.179688 179.046875 L 457.824219 217.980469" fill="#211a15"/></g><g id="change1_38"><path d="M 391.113281 207.191406 L 414.359375 222.757812 L 414.914062 221.929688 L 391.671875 206.359375" fill="#211a15"/></g><g id="change1_39"><path d="M 391.878906 206.890625 L 404.011719 156.105469 L 403.035156 155.875 L 390.90625 206.65625" fill="#211a15"/></g><g id="change1_40"><path d="M 289.484375 188.007812 C 283.9375 190.652344 277.941406 194.4375 272.554688 199.277344 C 269.324219 202.183594 266.3125 205.46875 263.75 209.113281 L 264.566406 209.691406 C 267.078125 206.113281 270.039062 202.882812 273.222656 200.023438 C 278.527344 195.253906 284.449219 191.515625 289.914062 188.910156 L 289.484375 188.007812" fill="#211a15"/></g><g id="change1_41"><path d="M 255.796875 230.277344 L 255.839844 230.273438 C 255.9375 230.261719 256.1875 230.242188 256.53125 230.242188 C 257.316406 230.238281 258.582031 230.359375 259.582031 230.921875 C 260.085938 231.199219 260.523438 231.578125 260.84375 232.109375 C 261.164062 232.644531 261.371094 233.339844 261.371094 234.285156 C 261.371094 234.664062 261.339844 235.082031 261.261719 235.542969 C 261.097656 236.566406 260.613281 237.75 259.835938 238.644531 C 259.046875 239.539062 258.003906 240.152344 256.597656 240.15625 C 256.277344 240.15625 255.9375 240.121094 255.578125 240.050781 L 255.386719 241.035156 C 255.804688 241.117188 256.210938 241.15625 256.597656 241.15625 C 258.3125 241.160156 259.664062 240.367188 260.589844 239.300781 C 261.515625 238.230469 262.050781 236.898438 262.25 235.703125 C 262.332031 235.195312 262.371094 234.722656 262.371094 234.285156 C 262.375 233.191406 262.121094 232.296875 261.699219 231.597656 C 261.066406 230.539062 260.070312 229.949219 259.109375 229.628906 C 258.144531 229.308594 257.1875 229.242188 256.53125 229.242188 C 256.019531 229.242188 255.6875 229.28125 255.671875 229.285156 L 255.796875 230.277344" fill="#211a15"/></g><g id="change1_42"><path d="M 324.605469 222.308594 L 334.644531 233.203125 L 335.382812 232.527344 L 325.339844 221.628906" fill="#211a15"/></g></g></svg>