<?xml version="1.0" encoding="UTF-8"?><svg xmlns="http://www.w3.org/2000/svg" xmlns:xlink="http://www.w3.org/1999/xlink" height="496.2" preserveAspectRatio="xMidYMid meet" version="1.0" viewBox="0.0 -0.5 491.9 496.2" width="491.9" zoomAndPan="magnify"><defs><clipPath id="a"><path d="M 88 212 L 397 212 L 397 488.921875 L 88 488.921875 Z M 88 212"/></clipPath><clipPath id="b"><path d="M 7 407 L 233 407 L 233 488.921875 L 7 488.921875 Z M 7 407"/></clipPath><clipPath id="c"><path d="M 253 407 L 479 407 L 479 488.921875 L 253 488.921875 Z M 253 407"/></clipPath><clipPath id="d"><path d="M 400 455 L 471 455 L 471 488.921875 L 400 488.921875 Z M 400 455"/></clipPath><clipPath id="e"><path d="M 48 135 L 298 135 L 298 488.921875 L 48 488.921875 Z M 48 135"/></clipPath><clipPath id="f"><path d="M 85 309 L 401 309 L 401 488.921875 L 85 488.921875 Z M 85 309"/></clipPath><clipPath id="g"><path d="M 0 487 L 491.898438 487 L 491.898438 488.921875 L 0 488.921875 Z M 0 487"/></clipPath></defs><g><g clip-path="url(#a)" id="change1_1"><path d="M 139.738281 220.59375 L 200.4375 212.984375 L 288.246094 212.984375 L 345.113281 220.542969 L 396.945312 488.019531 L 88.628906 488.421875 L 139.738281 220.59375" fill="#e15a1c"/></g><g id="change2_1"><path d="M 244.320312 259.847656 C 281.964844 259.847656 312.484375 240.792969 312.484375 217.289062 C 312.484375 216.925781 312.453125 216.5625 312.441406 216.199219 L 288.25 212.984375 L 200.4375 212.984375 L 176.203125 216.023438 C 176.1875 216.445312 176.152344 216.863281 176.152344 217.289062 C 176.152344 240.792969 206.671875 259.847656 244.320312 259.847656" fill="#f9b033"/></g><g id="change3_2"><path d="M 215.628906 102.460938 C 215.628906 116.320312 204.394531 127.558594 190.535156 127.558594 C 176.675781 127.558594 165.441406 116.320312 165.441406 102.460938 C 165.441406 88.601562 176.675781 77.367188 190.535156 77.367188 C 204.394531 77.367188 215.628906 88.601562 215.628906 102.460938" fill="#211a15"/></g><g id="change3_3"><path d="M 232.246094 137.347656 C 232.246094 151.207031 221.011719 162.441406 207.152344 162.441406 C 193.292969 162.441406 182.058594 151.207031 182.058594 137.347656 C 182.058594 123.488281 193.292969 112.253906 207.152344 112.253906 C 221.011719 112.253906 232.246094 123.488281 232.246094 137.347656" fill="#211a15"/></g><g id="change3_4"><path d="M 228.601562 137.347656 L 228.101562 137.347656 C 228.097656 144.140625 225.347656 150.285156 220.894531 154.738281 C 216.441406 159.191406 210.296875 161.941406 203.503906 161.941406 C 196.710938 161.941406 190.566406 159.191406 186.113281 154.738281 C 181.660156 150.285156 178.910156 144.140625 178.90625 137.347656 C 178.910156 130.554688 181.660156 124.410156 186.113281 119.957031 C 190.566406 115.503906 196.710938 112.753906 203.503906 112.753906 C 210.296875 112.753906 216.441406 115.503906 220.894531 119.957031 C 225.347656 124.410156 228.097656 130.554688 228.101562 137.347656 L 229.101562 137.347656 C 229.097656 123.210938 217.640625 111.753906 203.503906 111.753906 C 189.367188 111.753906 177.910156 123.210938 177.90625 137.347656 C 177.910156 151.484375 189.367188 162.941406 203.503906 162.941406 C 217.640625 162.941406 229.097656 151.484375 229.101562 137.347656 L 228.601562 137.347656" fill="#211a15"/></g><g id="change3_5"><path d="M 293.179688 25.09375 C 293.179688 38.953125 281.941406 50.191406 268.082031 50.191406 C 254.222656 50.191406 242.988281 38.953125 242.988281 25.09375 C 242.988281 11.234375 254.222656 0 268.082031 0 C 281.941406 0 293.179688 11.234375 293.179688 25.09375" fill="#211a15"/></g><g id="change3_6"><path d="M 296.140625 25.09375 L 295.640625 25.09375 C 295.640625 31.886719 292.890625 38.03125 288.4375 42.484375 C 283.984375 46.9375 277.839844 49.6875 271.046875 49.691406 C 264.253906 49.6875 258.105469 46.9375 253.652344 42.484375 C 249.203125 38.03125 246.449219 31.886719 246.449219 25.09375 C 246.449219 18.300781 249.203125 12.15625 253.652344 7.703125 C 258.105469 3.25 264.253906 0.5 271.046875 0.5 C 277.839844 0.5 283.984375 3.25 288.4375 7.703125 C 292.890625 12.15625 295.640625 18.300781 295.640625 25.09375 L 296.640625 25.09375 C 296.640625 10.957031 285.183594 -0.5 271.046875 -0.5 C 256.910156 -0.5 245.449219 10.957031 245.449219 25.09375 C 245.449219 39.230469 256.910156 50.6875 271.046875 50.691406 C 285.183594 50.6875 296.640625 39.230469 296.640625 25.09375 L 296.140625 25.09375" fill="#211a15"/></g><g id="change3_7"><path d="M 252.378906 28.539062 C 252.378906 42.398438 241.144531 53.632812 227.285156 53.632812 C 213.425781 53.632812 202.191406 42.398438 202.191406 28.539062 C 202.191406 14.679688 213.425781 3.441406 227.285156 3.441406 C 241.144531 3.441406 252.378906 14.679688 252.378906 28.539062" fill="#211a15"/></g><g id="change3_8"><path d="M 339.738281 25.09375 C 339.738281 38.953125 328.5 50.191406 314.640625 50.191406 C 300.78125 50.191406 289.546875 38.953125 289.546875 25.09375 C 289.546875 11.234375 300.78125 0 314.640625 0 C 328.5 0 339.738281 11.234375 339.738281 25.09375" fill="#211a15"/></g><g id="change3_9"><path d="M 359.574219 50.191406 C 359.574219 64.050781 348.339844 75.285156 334.480469 75.285156 C 320.617188 75.285156 309.382812 64.050781 309.382812 50.191406 C 309.382812 36.328125 320.617188 25.09375 334.480469 25.09375 C 348.339844 25.09375 359.574219 36.328125 359.574219 50.191406" fill="#211a15"/></g><g id="change3_10"><path d="M 361.195312 52.269531 L 360.695312 52.269531 C 360.695312 59.0625 357.945312 65.210938 353.492188 69.660156 C 349.039062 74.113281 342.894531 76.863281 336.101562 76.867188 C 329.308594 76.863281 323.160156 74.113281 318.710938 69.660156 C 314.257812 65.210938 311.503906 59.0625 311.503906 52.269531 C 311.503906 45.476562 314.257812 39.332031 318.710938 34.878906 C 323.160156 30.425781 329.308594 27.675781 336.101562 27.675781 C 342.894531 27.675781 349.039062 30.425781 353.492188 34.878906 C 357.945312 39.332031 360.695312 45.476562 360.695312 52.269531 L 361.695312 52.269531 C 361.695312 38.132812 350.234375 26.675781 336.101562 26.675781 C 321.964844 26.675781 310.503906 38.132812 310.503906 52.269531 C 310.503906 66.40625 321.964844 77.863281 336.101562 77.867188 C 350.234375 77.863281 361.695312 66.40625 361.695312 52.269531 L 361.195312 52.269531" fill="#211a15"/></g><g id="change3_11"><path d="M 367.664062 78.730469 C 367.664062 92.589844 356.429688 103.824219 342.570312 103.824219 C 328.710938 103.824219 317.476562 92.589844 317.476562 78.730469 C 317.476562 64.867188 328.710938 53.632812 342.570312 53.632812 C 356.429688 53.632812 367.664062 64.867188 367.664062 78.730469" fill="#211a15"/></g><g id="change3_12"><path d="M 367.664062 82.621094 L 367.164062 82.621094 C 367.164062 89.414062 364.414062 95.558594 359.960938 100.011719 C 355.511719 104.464844 349.363281 107.214844 342.570312 107.21875 C 335.777344 107.214844 329.632812 104.464844 325.179688 100.011719 C 320.726562 95.558594 317.976562 89.414062 317.976562 82.621094 C 317.976562 75.828125 320.726562 69.683594 325.179688 65.230469 C 329.632812 60.777344 335.777344 58.027344 342.570312 58.023438 C 349.363281 58.027344 355.511719 60.777344 359.960938 65.230469 C 364.414062 69.683594 367.164062 75.828125 367.164062 82.621094 L 368.164062 82.621094 C 368.164062 68.484375 356.707031 57.027344 342.570312 57.023438 C 328.433594 57.027344 316.976562 68.484375 316.976562 82.621094 C 316.976562 96.757812 328.433594 108.214844 342.570312 108.214844 C 356.707031 108.214844 368.164062 96.757812 368.164062 82.621094 L 367.664062 82.621094" fill="#211a15"/></g><g id="change3_13"><path d="M 354.8125 111.035156 C 354.8125 124.894531 343.574219 136.132812 329.714844 136.132812 C 315.855469 136.132812 304.621094 124.894531 304.621094 111.035156 C 304.621094 97.175781 315.855469 85.941406 329.714844 85.941406 C 343.574219 85.941406 354.8125 97.175781 354.8125 111.035156" fill="#211a15"/></g><g id="change3_14"><path d="M 227.285156 60.847656 C 227.285156 74.703125 216.050781 85.941406 202.191406 85.941406 C 188.328125 85.941406 177.09375 74.703125 177.09375 60.847656 C 177.09375 46.984375 188.328125 35.75 202.191406 35.75 C 216.050781 35.75 227.285156 46.984375 227.285156 60.847656" fill="#211a15"/></g><g id="change3_15"><path d="M 225.53125 63.519531 L 225.03125 63.519531 C 225.03125 70.316406 222.28125 76.460938 217.828125 80.914062 C 213.375 85.363281 207.230469 88.117188 200.4375 88.117188 C 193.644531 88.117188 187.496094 85.363281 183.046875 80.914062 C 178.59375 76.460938 175.84375 70.316406 175.84375 63.519531 C 175.84375 56.726562 178.59375 50.582031 183.046875 46.128906 C 187.496094 41.679688 193.644531 38.925781 200.4375 38.925781 C 207.230469 38.925781 213.375 41.679688 217.828125 46.128906 C 222.28125 50.582031 225.03125 56.726562 225.03125 63.519531 L 226.03125 63.519531 C 226.03125 49.386719 214.574219 37.925781 200.4375 37.925781 C 186.300781 37.925781 174.84375 49.386719 174.84375 63.519531 C 174.84375 77.65625 186.300781 89.117188 200.4375 89.117188 C 214.574219 89.117188 226.03125 77.65625 226.03125 63.519531 L 225.53125 63.519531" fill="#211a15"/></g><g id="change4_1"><path d="M 200.4375 139.21875 L 200.4375 221.0625 L 288.246094 221.0625 L 288.246094 185.246094 L 200.4375 139.21875" fill="#95451d"/></g><g id="change4_2"><path d="M 266.878906 29.21875 C 301.339844 24.25 340.980469 46.316406 339.707031 103.140625 C 339.363281 118.496094 337.621094 149.195312 337.902344 164.550781 C 338.125 177.074219 336.890625 201.8125 313.875 208.519531 C 304.390625 211.285156 296.878906 212.527344 274.746094 214.039062 L 200.4375 139.21875 C 200.4375 139.21875 196.210938 39.402344 266.878906 29.21875" fill="#95451d"/></g><g id="change3_16"><path d="M 302.421875 133.691406 L 302.082031 162.210938 L 303.082031 162.222656 L 303.421875 133.703125" fill="#211a15"/></g><g id="change3_17"><path d="M 268.648438 146.738281 C 268.375 149.867188 269.863281 152.695312 271.964844 153.046875 C 274.070312 153.402344 275.996094 151.148438 276.269531 148.015625 C 276.539062 144.882812 275.054688 142.054688 272.949219 141.703125 C 270.84375 141.351562 268.917969 143.605469 268.648438 146.738281" fill="#211a15"/></g><g id="change3_18"><path d="M 310.089844 147.898438 C 309.816406 151.03125 311.304688 153.859375 313.40625 154.210938 C 315.511719 154.5625 317.4375 152.3125 317.710938 149.179688 C 317.980469 146.046875 316.492188 143.21875 314.390625 142.867188 C 312.285156 142.515625 310.359375 144.765625 310.089844 147.898438" fill="#211a15"/></g><g id="change3_19"><path d="M 272.171875 172.207031 C 272.179688 172.25 272.328125 174.324219 273.648438 176.445312 C 274.3125 177.503906 275.269531 178.574219 276.652344 179.371094 C 278.027344 180.171875 279.816406 180.695312 282.101562 180.695312 C 283.179688 180.695312 284.363281 180.578125 285.675781 180.324219 L 285.484375 179.34375 C 284.230469 179.585938 283.105469 179.695312 282.101562 179.695312 C 279.96875 179.691406 278.371094 179.214844 277.152344 178.507812 C 275.328125 177.449219 274.335938 175.863281 273.789062 174.519531 C 273.519531 173.851562 273.363281 173.246094 273.273438 172.8125 C 273.230469 172.59375 273.203125 172.421875 273.191406 172.300781 L 273.175781 172.167969 L 273.171875 172.132812 L 272.175781 172.207031" fill="#211a15"/></g><g id="change1_4"><path d="M 434.109375 289.273438 C 460.746094 335.445312 472.246094 396.144531 474.71875 413.421875 C 482.316406 466.558594 415.210938 495.714844 396.945312 480.160156 C 358.183594 447.15625 349.925781 339.734375 342.511719 291.222656 C 334.699219 240.105469 404.539062 238.019531 434.109375 289.273438" fill="#e15a1c"/></g><g id="change1_5"><path d="M 51.464844 289.273438 C 24.828125 335.445312 13.328125 396.144531 10.859375 413.421875 C 3.257812 466.558594 70.363281 495.714844 88.628906 480.160156 C 127.394531 447.15625 135.648438 339.734375 143.066406 291.222656 C 150.878906 240.105469 81.035156 238.019531 51.464844 289.273438" fill="#e15a1c"/></g><g id="change1_6"><path d="M 434.109375 289.273438 C 404.539062 238.019531 334.699219 240.105469 342.511719 291.222656 C 345.15625 308.511719 347.90625 333.285156 352.105469 359.503906 L 462.710938 359.503906 C 456.226562 337.027344 446.917969 311.472656 434.109375 289.273438" fill="#e15a1c"/></g><g id="change1_7"><path d="M 51.464844 289.273438 C 38.660156 311.472656 29.351562 337.027344 22.863281 359.503906 L 133.472656 359.503906 C 137.671875 333.285156 140.421875 308.511719 143.066406 291.222656 C 150.878906 240.105469 81.035156 238.019531 51.464844 289.273438" fill="#e15a1c"/></g><g clip-path="url(#b)" id="change1_2"><path d="M 10.859375 413.421875 C 10.859375 413.421875 -2.308594 483.710938 22.605469 488.640625 L 231.761719 487.738281 C 234.433594 477.554688 229.371094 426.382812 209.835938 417.617188 C 164.4375 397.253906 10.859375 413.421875 10.859375 413.421875" fill="#e15a1c"/></g><g id="change3_20"><path d="M 104.867188 407.140625 L 63.238281 406.101562 L 63.214844 407.101562 L 104.84375 408.140625" fill="#211a15"/></g><g id="change1_8"><path d="M 340.648438 220.390625 C 368.265625 220.390625 418.148438 238.5625 448.328125 318.261719 L 345.886719 334.054688 L 340.648438 220.390625" fill="#e15a1c"/></g><g id="change1_9"><path d="M 144.929688 220.390625 C 117.3125 220.390625 67.429688 238.5625 37.25 318.261719 L 139.691406 334.054688 L 144.929688 220.390625" fill="#e15a1c"/></g><g clip-path="url(#c)" id="change1_3"><path d="M 474.71875 413.421875 C 474.71875 413.421875 487.886719 483.710938 462.972656 488.640625 L 253.8125 488.253906 C 251.144531 478.070312 256.203125 426.382812 275.742188 417.617188 C 321.140625 397.253906 474.71875 413.421875 474.71875 413.421875" fill="#e15a1c"/></g><g id="change3_21"><path d="M 126.1875 309.128906 L 129.191406 291.925781 L 128.203125 291.753906 L 125.203125 308.957031" fill="#211a15"/></g><g id="change3_22"><path d="M 360.640625 308.964844 L 358.261719 294.191406 L 357.273438 294.351562 L 359.65625 309.121094" fill="#211a15"/></g><g clip-path="url(#d)" id="change3_38"><path d="M 400.160156 488.359375 C 400.160156 488.359375 403.910156 451.605469 440.046875 455.351562 C 450.589844 456.441406 468.527344 465.796875 470.65625 488.421875 L 400.160156 488.359375" fill="#211a15"/></g><g id="change3_23"><path d="M 383.179688 408.691406 L 427.464844 407.101562 L 427.429688 406.101562 L 383.144531 407.691406" fill="#211a15"/></g><g id="change3_24"><path d="M 252.378906 100.941406 C 252.378906 114.804688 241.144531 126.039062 227.285156 126.039062 C 213.425781 126.039062 202.191406 114.804688 202.191406 100.941406 C 202.191406 87.082031 213.425781 75.847656 227.285156 75.847656 C 241.144531 75.847656 252.378906 87.082031 252.378906 100.941406" fill="#211a15"/></g><g id="change3_25"><path d="M 255.054688 100.941406 L 254.554688 100.941406 C 254.554688 107.734375 251.804688 113.882812 247.351562 118.335938 C 242.898438 122.785156 236.753906 125.539062 229.960938 125.539062 C 223.167969 125.539062 217.019531 122.785156 212.570312 118.335938 C 208.117188 113.882812 205.367188 107.734375 205.363281 100.941406 C 205.367188 94.148438 208.117188 88.003906 212.570312 83.550781 C 217.019531 79.101562 223.167969 76.347656 229.960938 76.347656 C 236.753906 76.347656 242.898438 79.101562 247.351562 83.550781 C 251.804688 88.003906 254.554688 94.148438 254.554688 100.941406 L 255.554688 100.941406 C 255.554688 86.808594 244.097656 75.347656 229.960938 75.347656 C 215.824219 75.347656 204.367188 86.808594 204.363281 100.941406 C 204.367188 115.078125 215.824219 126.539062 229.960938 126.539062 C 244.097656 126.539062 255.554688 115.078125 255.554688 100.941406 L 255.054688 100.941406" fill="#211a15"/></g><g id="change3_26"><path d="M 245.558594 75.847656 C 245.558594 89.707031 234.324219 100.941406 220.464844 100.941406 C 206.605469 100.941406 195.367188 89.707031 195.367188 75.847656 C 195.367188 61.988281 206.605469 50.753906 220.464844 50.753906 C 234.324219 50.753906 245.558594 61.988281 245.558594 75.847656" fill="#211a15"/></g><g id="change3_27"><path d="M 263.414062 47.363281 C 263.414062 61.226562 252.175781 72.460938 238.316406 72.460938 C 224.457031 72.460938 213.222656 61.226562 213.222656 47.363281 C 213.222656 33.503906 224.457031 22.269531 238.316406 22.269531 C 252.175781 22.269531 263.414062 33.503906 263.414062 47.363281" fill="#211a15"/></g><g id="change3_28"><path d="M 277.476562 65.21875 C 277.476562 79.078125 266.238281 90.3125 252.378906 90.3125 C 238.519531 90.3125 227.285156 79.078125 227.285156 65.21875 C 227.285156 51.359375 238.519531 40.125 252.378906 40.125 C 266.238281 40.125 277.476562 51.359375 277.476562 65.21875" fill="#211a15"/></g><g id="change3_29"><path d="M 295.15625 41.65625 C 295.15625 55.519531 283.921875 66.753906 270.0625 66.753906 C 256.203125 66.753906 244.96875 55.519531 244.96875 41.65625 C 244.96875 27.800781 256.203125 16.5625 270.0625 16.5625 C 283.921875 16.5625 295.15625 27.800781 295.15625 41.65625" fill="#211a15"/></g><g id="change3_30"><path d="M 320.253906 69.148438 C 320.253906 83.007812 309.019531 94.242188 295.15625 94.242188 C 281.300781 94.242188 270.0625 83.007812 270.0625 69.148438 C 270.0625 55.289062 281.300781 44.050781 295.15625 44.050781 C 309.019531 44.050781 320.253906 55.289062 320.253906 69.148438" fill="#211a15"/></g><g id="change3_31"><path d="M 320.253906 71.335938 L 319.753906 71.335938 C 319.753906 78.128906 317.003906 84.273438 312.550781 88.726562 C 308.097656 93.179688 301.949219 95.929688 295.15625 95.933594 C 288.363281 95.929688 282.21875 93.179688 277.765625 88.726562 C 273.316406 84.273438 270.5625 78.128906 270.5625 71.335938 C 270.5625 64.542969 273.316406 58.398438 277.765625 53.945312 C 282.21875 49.492188 288.363281 46.742188 295.15625 46.742188 C 301.949219 46.742188 308.097656 49.492188 312.550781 53.945312 C 317.003906 58.398438 319.753906 64.542969 319.753906 71.335938 L 320.753906 71.335938 C 320.753906 57.199219 309.292969 45.742188 295.15625 45.742188 C 281.023438 45.742188 269.5625 57.199219 269.5625 71.335938 C 269.5625 85.472656 281.023438 96.929688 295.15625 96.933594 C 309.292969 96.929688 320.753906 85.472656 320.753906 71.335938 L 320.253906 71.335938" fill="#211a15"/></g><g id="change3_32"><path d="M 331.589844 44.050781 C 331.589844 57.910156 320.355469 69.148438 306.492188 69.148438 C 292.632812 69.148438 281.398438 57.910156 281.398438 44.050781 C 281.398438 30.191406 292.632812 18.957031 306.492188 18.957031 C 320.355469 18.957031 331.589844 30.191406 331.589844 44.050781" fill="#211a15"/></g><g id="change3_33"><path d="M 354.8125 75.847656 C 354.8125 89.707031 343.574219 100.941406 329.714844 100.941406 C 315.855469 100.941406 304.621094 89.707031 304.621094 75.847656 C 304.621094 61.988281 315.855469 50.753906 329.714844 50.753906 C 343.574219 50.753906 354.8125 61.988281 354.8125 75.847656" fill="#211a15"/></g><g id="change4_3"><path d="M 227.285156 126.128906 C 227.285156 126.128906 222.117188 96.273438 200.484375 105.59375 C 192.761719 108.917969 182.636719 123.855469 200.4375 139.21875 L 227.285156 126.128906" fill="#95451d"/></g><g id="change4_4"><path d="M 288.246094 221.0625 C 288.246094 231.84375 268.578125 240.585938 244.320312 240.585938 C 220.058594 240.585938 200.390625 231.84375 200.390625 221.0625 C 200.390625 210.28125 220.058594 201.539062 244.320312 201.539062 C 268.578125 201.539062 288.246094 210.28125 288.246094 221.0625" fill="#95451d"/></g><g id="change3_34"><path d="M 288.195312 212.488281 L 263.359375 215.164062 L 263.46875 216.160156 L 288.300781 213.480469" fill="#211a15"/></g><g id="change3_35"><path d="M 284.355469 121.113281 C 282.984375 118.742188 280.421875 117.144531 277.484375 117.144531 C 274.546875 117.144531 271.984375 118.742188 270.613281 121.113281 L 271.480469 121.613281 C 272.679688 119.539062 274.917969 118.144531 277.484375 118.144531 C 280.050781 118.144531 282.285156 119.539062 283.488281 121.613281 L 284.355469 121.113281" fill="#211a15"/></g><g id="change3_36"><path d="M 325.792969 121.113281 C 324.421875 118.742188 321.859375 117.144531 318.921875 117.144531 C 315.984375 117.144531 313.425781 118.742188 312.050781 121.113281 L 312.917969 121.613281 C 314.121094 119.539062 316.355469 118.144531 318.921875 118.144531 C 321.492188 118.144531 323.726562 119.539062 324.929688 121.613281 L 325.792969 121.113281" fill="#211a15"/></g><g id="change5_2"><path d="M 402.589844 478.480469 L 468.226562 478.480469 L 468.226562 477.480469 L 402.589844 477.480469 Z M 402.589844 478.480469" fill="#fff"/></g><g id="change5_3"><path d="M 430.410156 477.980469 L 431.410156 477.980469 L 431.410156 455.21875 L 430.410156 455.21875 Z M 430.410156 477.980469" fill="#fff"/></g><g id="change5_4"><path d="M 218.449219 123.054688 C 219.140625 128.324219 215.425781 133.152344 210.15625 133.84375 C 204.890625 134.53125 200.0625 130.820312 199.371094 125.554688 C 198.679688 120.285156 202.394531 115.453125 207.660156 114.765625 C 212.929688 114.074219 217.757812 117.785156 218.449219 123.054688" fill="#fff"/></g><g id="change5_5"><path d="M 205.390625 126.417969 L 208.636719 143.871094 L 214.464844 143.105469 L 213.390625 124.410156 L 205.390625 126.417969" fill="#fff"/></g><g id="change3_37"><path d="M 213.179688 123.789062 L 212.683594 123.855469 C 212.703125 124.007812 212.710938 124.15625 212.710938 124.308594 C 212.710938 126.011719 211.445312 127.5 209.707031 127.726562 C 209.558594 127.746094 209.40625 127.753906 209.257812 127.753906 C 207.550781 127.753906 206.066406 126.488281 205.839844 124.75 C 205.820312 124.597656 205.808594 124.449219 205.808594 124.300781 C 205.808594 122.59375 207.074219 121.105469 208.8125 120.882812 L 208.972656 120.871094 C 209.492188 120.863281 210.421875 121.148438 211.1875 121.683594 C 211.964844 122.21875 212.570312 122.96875 212.683594 123.855469 L 213.179688 123.789062 L 213.675781 123.726562 C 213.503906 122.457031 212.675781 121.496094 211.753906 120.859375 C 210.820312 120.226562 209.789062 119.878906 208.972656 119.871094 C 208.875 119.871094 208.777344 119.878906 208.683594 119.890625 C 206.441406 120.183594 204.808594 122.09375 204.808594 124.300781 C 204.808594 124.492188 204.820312 124.6875 204.847656 124.882812 C 205.140625 127.121094 207.054688 128.753906 209.257812 128.753906 C 209.449219 128.753906 209.640625 128.742188 209.839844 128.71875 C 212.078125 128.421875 213.710938 126.511719 213.710938 124.308594 C 213.710938 124.117188 213.699219 123.921875 213.675781 123.726562 L 213.179688 123.789062" fill="#211a15"/></g><g clip-path="url(#e)" id="change5_1"><path d="M 210.34375 135.351562 C 210.347656 135.40625 210.546875 219.183594 267.707031 284.867188 C 275.476562 293.796875 282.6875 302.925781 287.949219 312.242188 C 293.210938 321.5625 296.515625 331.058594 296.515625 340.738281 C 296.511719 356.046875 288.269531 371.925781 266.042969 388.460938 C 243.820312 404.984375 207.644531 422.09375 151.988281 439.738281 C 134.105469 445.410156 108.425781 453.757812 87.199219 461.925781 C 76.585938 466.007812 67.085938 470.046875 60.21875 473.691406 C 56.785156 475.515625 54.007812 477.242188 52.0625 478.84375 C 51.089844 479.648438 50.324219 480.421875 49.785156 481.179688 C 49.253906 481.9375 48.9375 482.691406 48.933594 483.453125 C 48.929688 484.414062 49.472656 485.28125 50.417969 485.9375 C 51.847656 486.9375 54.21875 487.65625 57.765625 488.160156 C 61.308594 488.660156 66.015625 488.925781 72.0625 488.925781 C 72.566406 488.925781 73.078125 488.921875 73.59375 488.921875 C 90.242188 488.800781 105.019531 482.527344 105.050781 482.515625 L 104.660156 481.59375 C 104.660156 481.59375 104.4375 481.6875 104.007812 481.859375 C 100.992188 483.046875 87.941406 487.820312 73.589844 487.921875 C 73.070312 487.921875 72.5625 487.925781 72.0625 487.925781 C 64.042969 487.925781 58.40625 487.449219 54.832031 486.609375 C 53.042969 486.191406 51.773438 485.675781 50.996094 485.121094 C 50.214844 484.558594 49.941406 484.035156 49.933594 483.453125 C 49.933594 482.984375 50.140625 482.410156 50.601562 481.757812 C 51.46875 480.53125 53.199219 479.074219 55.621094 477.511719 C 64.105469 472.027344 80.96875 465.125 99.34375 458.460938 C 117.71875 451.792969 137.628906 445.34375 152.289062 440.691406 C 208.003906 423.023438 244.265625 405.894531 266.636719 389.261719 C 289.007812 372.640625 297.519531 356.4375 297.515625 340.738281 C 297.515625 330.828125 294.132812 321.164062 288.820312 311.753906 C 283.503906 302.339844 276.25 293.164062 268.460938 284.210938 C 240.015625 251.535156 225.734375 214.3125 218.5625 185.257812 C 214.980469 170.730469 213.175781 158.246094 212.265625 149.398438 C 211.808594 144.972656 211.578125 141.457031 211.460938 139.050781 C 211.402344 137.847656 211.375 136.921875 211.359375 136.296875 C 211.34375 135.671875 211.34375 135.351562 211.34375 135.351562 L 210.34375 135.351562" fill="#fff"/></g><g id="change5_6"><path d="M 299.988281 211.414062 C 295.863281 228.304688 288.96875 241.683594 283.082031 253.082031 C 277.207031 264.480469 272.304688 273.898438 272.296875 282.953125 C 272.292969 286.371094 273.003906 289.726562 274.621094 293.074219 L 275.523438 292.640625 C 273.96875 289.421875 273.296875 286.230469 273.292969 282.953125 C 273.285156 274.277344 278.078125 264.9375 283.972656 253.539062 C 289.855469 242.140625 296.800781 228.675781 300.960938 211.652344 L 299.988281 211.414062" fill="#fff"/></g><g clip-path="url(#f)" id="change3_39"><path d="M 377.679688 488.421875 L 107.898438 488.421875 C 101.550781 488.421875 96.292969 483.503906 95.867188 477.171875 L 85.445312 321.90625 C 84.976562 314.945312 90.496094 309.042969 97.476562 309.042969 L 388.101562 309.042969 C 395.078125 309.042969 400.601562 314.945312 400.132812 321.90625 L 389.710938 477.171875 C 389.285156 483.503906 384.023438 488.421875 377.679688 488.421875" fill="#211a15"/></g><g id="change5_7"><path d="M 262.855469 402.28125 L 262.355469 402.273438 C 262.265625 412.574219 253.515625 420.882812 242.789062 420.882812 C 232.058594 420.882812 223.308594 412.574219 223.222656 402.273438 L 223.21875 402.113281 C 223.222656 396.945312 225.394531 392.261719 228.929688 388.859375 C 232.46875 385.460938 237.359375 383.347656 242.789062 383.347656 C 248.214844 383.347656 253.109375 385.460938 256.644531 388.859375 C 260.179688 392.261719 262.355469 396.945312 262.355469 402.109375 L 262.355469 402.28125 L 262.855469 402.28125 L 262.355469 402.273438 L 262.855469 402.28125 L 263.355469 402.277344 L 263.355469 402.109375 C 263.355469 396.660156 261.054688 391.714844 257.335938 388.140625 C 253.617188 384.5625 248.476562 382.347656 242.789062 382.347656 C 237.097656 382.347656 231.957031 384.5625 228.238281 388.140625 C 224.519531 391.714844 222.21875 396.660156 222.222656 402.113281 L 222.222656 402.285156 C 222.320312 413.164062 231.539062 421.882812 242.789062 421.882812 C 254.035156 421.882812 263.253906 413.164062 263.355469 402.285156 L 263.355469 402.277344 L 262.855469 402.28125" fill="#fff"/></g><g clip-path="url(#g)" id="change3_1"><path d="M 0 488.921875 L 491.902344 488.921875 L 491.902344 487.921875 L 0 487.921875 Z M 0 488.921875" fill="#211a15"/></g></g></svg>